# xmcd
#
# Track frame offsets: 
#        150
#        17373
#        43475
#        68270
#        85383
#        105933
#        130283
#        155393
#        173525
#        192865
#        214583
#        236923
#
# Disc length: 3398 seconds
#
# Revision: 3
# Processed by: cddbd v1.5.2PL0 Copyright (c) Steve Scherf et al.
# Submitted via: ExactAudioCopyFreeDBPlugin 1.0
#
DISCID=920d440c
DTITLE=Kenny Wayne Shepherd - Trouble Is
DYEAR=1997
DGENRE=Blues
TTITLE0=Slow Ride
TTITLE1=True Lies
TTITLE2=Blue on Black
TTITLE3=Everything Is Broken
TTITLE4=I Don't Live Today
TTITLE5=(Long) Gone
TTITLE6=Somehow, Somewhere, Someway
TTITLE7=I Found Love (When I Found You)
TTITLE8=King's Highway
TTITLE9=Nothing to Do with Love
TTITLE10=Chase the Rainbow
TTITLE11=Trouble Is
EXTD=YEAR: 1997
EXTT0=
EXTT1=
EXTT2=
EXTT3=
EXTT4=
EXTT5=
EXTT6=
EXTT7=
EXTT8=
EXTT9=
EXTT10=
EXTT11=
PLAYORDER=
